<?xml version="1.0" standalone="no"?>
<!DOCTYPE svg PUBLIC "-//W3C//DTD SVG 20010904//EN"
 "http://www.w3.org/TR/2001/REC-SVG-20010904/DTD/svg10.dtd">
<svg version="1.0" xmlns="http://www.w3.org/2000/svg"
 width="3300.000000pt" height="3300.000000pt" viewBox="0 0 3300.000000 3300.000000"
 preserveAspectRatio="xMidYMid meet">
<metadata>
Created by potrace 1.11, written by Peter Selinger 2001-2013
</metadata>
<g transform="translate(0.000000,3300.000000) scale(0.100000,-0.100000)"
fill="#000000" stroke="none">
<path d="M13265 30014 c-170 -11 -452 -49 -628 -85 -1104 -223 -2055 -825
-2737 -1734 -610 -812 -925 -1803 -897 -2820 13 -451 74 -817 209 -1250 39
-126 146 -403 185 -480 l20 -37 134 128 c992 946 2269 1500 3648 1585 223 14
682 6 891 -16 730 -74 1412 -273 2047 -596 510 -260 942 -566 1391 -987 l121
-114 27 59 c178 399 304 864 359 1333 23 187 31 597 16 801 -63 876 -361 1680
-884 2389 -243 329 -559 650 -885 898 -669 510 -1432 814 -2277 908 -133 15
-608 26 -740 18z"/>
<path d="M19155 30009 c-521 -42 -977 -151 -1430 -343 -60 -25 -116 -50 -124
-55 -12 -8 12 -38 110 -138 219 -227 434 -495 628 -783 274 -406 525 -918 679
-1385 211 -637 303 -1253 289 -1935 -9 -473 -56 -828 -168 -1278 -239 -963
-705 -1811 -1418 -2580 l-133 -142 59 -26 c402 -179 844 -298 1333 -359 173
-22 638 -31 826 -16 505 40 973 154 1440 351 507 214 977 529 1387 929 847
828 1329 1929 1364 3116 31 1105 -340 2174 -1056 3035 -116 140 -377 402 -526
530 -829 709 -1886 1096 -2970 1089 -104 -1 -235 -5 -290 -10z"/>
<path d="M13125 24065 c-1043 -99 -2003 -539 -2739 -1255 -1134 -1103 -1611
-2665 -1285 -4210 263 -1252 1072 -2351 2199 -2992 843 -479 1820 -672 2800
-552 298 36 707 137 987 243 168 63 323 131 323 141 0 5 -15 21 -34 37 -41 34
-242 254 -347 378 -662 789 -1107 1765 -1269 2785 -81 517 -93 1056 -34 1580
81 716 329 1490 679 2115 248 444 506 795 868 1185 74 80 132 148 128 153 -16
17 -336 141 -496 192 -291 93 -562 151 -885 191 -188 23 -694 28 -895 9z"/>
<path d="M15324 21374 c-182 -411 -301 -848 -360 -1324 -26 -206 -26 -781 0
-990 70 -571 208 -1041 447 -1527 317 -642 817 -1231 1409 -1658 570 -411
1259 -695 1940 -799 280 -43 388 -51 725 -50 452 0 683 29 1111 139 726 186
1383 541 1934 1047 1056 968 1591 2376 1444 3799 -43 422 -147 836 -311 1244
-35 88 -69 164 -74 170 -6 6 -46 -27 -112 -91 -256 -251 -528 -469 -847 -679
-633 -417 -1300 -689 -2051 -839 -342 -69 -723 -106 -1079 -106 -794 0 -1526
143 -2235 435 -539 223 -1045 531 -1510 920 -106 88 -298 263 -340 308 -11 12
-30 31 -42 41 l-23 19 -26 -59z"/>
<path d="M2558 11249 c-141 -24 -240 -58 -368 -125 -167 -88 -263 -168 -367
-304 -144 -189 -204 -392 -182 -619 17 -186 72 -305 199 -431 70 -70 103 -95
185 -137 216 -110 377 -139 855 -152 258 -8 334 -13 419 -31 190 -39 305 -110
361 -223 79 -163 62 -353 -45 -490 -140 -177 -412 -280 -775 -293 -135 -5
-169 -3 -259 15 -260 54 -448 158 -647 357 l-110 111 -150 -139 c-82 -77 -155
-145 -162 -152 -10 -10 1 -28 57 -93 238 -275 595 -474 966 -538 117 -20 393
-20 545 0 416 54 768 240 940 494 115 171 156 313 154 536 -3 366 -124 589
-396 730 -224 116 -411 149 -1013 175 -239 10 -342 28 -436 75 -235 120 -253
384 -40 595 84 83 191 144 311 177 146 40 495 15 660 -48 130 -49 300 -148
451 -264 l46 -35 141 167 142 167 -23 24 c-76 82 -278 222 -429 298 -288 145
-717 209 -1030 153z"/>
<path d="M13930 11170 c0 -12 1024 -3035 1046 -3087 l13 -33 240 0 c219 0 241
2 249 18 5 9 136 420 292 912 156 492 286 898 290 902 3 5 141 -405 306 -910
l299 -917 241 -3 c186 -2 243 1 251 10 5 7 110 328 233 713 122 385 343 1079
491 1542 148 464 269 847 269 853 0 6 -85 10 -238 10 l-237 0 -385 -1165
c-211 -641 -387 -1160 -391 -1153 -3 7 -181 532 -395 1166 l-388 1152 -233 0
c-128 0 -233 -3 -232 -7 0 -5 35 -116 78 -248 l78 -240 -32 -100 c-225 -718
-551 -1732 -555 -1728 -3 2 -190 525 -416 1161 l-411 1157 -231 3 c-162 2
-232 -1 -232 -8z"/>
<path d="M30230 10284 c-256 -43 -441 -131 -569 -270 -114 -124 -157 -246
-148 -419 14 -268 160 -448 440 -539 113 -37 261 -54 528 -61 383 -9 517 -46
575 -157 30 -57 12 -172 -37 -238 -127 -171 -625 -248 -912 -140 -88 33 -192
108 -292 211 l-90 92 -153 -159 -153 -159 91 -87 c147 -142 308 -239 504 -303
156 -50 228 -60 446 -59 163 0 213 4 305 23 392 82 634 270 713 553 12 47 17
99 16 203 0 125 -3 148 -28 220 -35 104 -84 174 -160 232 -161 122 -388 177
-796 193 -293 12 -385 24 -452 59 -73 37 -93 67 -93 145 0 53 4 68 28 99 33
44 106 88 197 119 59 21 83 23 255 23 165 -1 201 -4 273 -23 127 -35 187 -60
260 -108 63 -43 66 -44 82 -27 59 64 272 314 269 317 -127 100 -380 205 -584
242 -85 16 -453 29 -515 18z"/>
<path d="M19330 10265 c0 -3 29 -61 65 -129 36 -67 65 -128 65 -134 0 -6 -232
-445 -515 -976 -283 -531 -515 -968 -515 -971 0 -3 98 -5 218 -5 l218 0 45 43
c95 89 450 206 799 263 59 10 190 18 350 21 l255 5 86 -163 86 -164 232 -3
c175 -2 231 1 231 10 0 10 -422 814 -983 1873 l-175 330 -231 3 c-127 1 -231
0 -231 -3z m569 -1086 c112 -214 201 -393 198 -396 -3 -3 -74 -9 -158 -14
-177 -10 -265 -21 -404 -54 -107 -25 -256 -75 -317 -106 -21 -11 -38 -17 -38
-13 0 12 502 974 508 974 4 0 99 -176 211 -391z"/>
<path d="M4560 10005 l0 -215 390 0 390 0 2 -867 3 -868 213 -3 212 -2 0 870
0 870 410 0 410 0 0 215 0 215 -1015 0 -1015 0 0 -215z"/>
<path d="M7260 9135 l0 -1085 213 2 212 3 3 1083 2 1082 -215 0 -215 0 0
-1085z"/>
<path d="M8692 9138 l3 -1083 798 -3 797 -2 0 220 0 220 -575 0 -575 0 0 865
0 865 -225 0 -225 0 2 -1082z"/>
<path d="M10920 9135 l0 -1085 798 2 797 3 3 218 2 217 -575 0 -575 0 0 865 0
865 -225 0 -225 0 0 -1085z"/>
<path d="M21292 10008 l3 -213 392 -3 393 -2 2 -868 3 -867 213 -3 212 -2 0
870 0 870 410 0 410 0 0 215 0 215 -1020 0 -1020 0 2 -212z"/>
<path d="M24000 9135 l0 -1085 893 2 892 3 3 218 2 217 -680 0 -680 0 0 173 0
174 78 36 c149 69 282 86 680 87 l232 0 0 216 0 216 -302 -5 c-167 -3 -337
-10 -378 -17 -80 -12 -241 -62 -277 -86 -12 -8 -25 -14 -28 -14 -3 0 -5 117
-5 260 l0 260 640 0 640 0 0 215 0 215 -855 0 -855 0 0 -1085z"/>
<path d="M26602 9138 l3 -1083 218 -3 217 -2 0 383 0 384 80 37 c129 59 230
78 409 80 l154 1 187 -305 c220 -358 289 -442 412 -503 101 -50 176 -64 376
-73 l172 -7 0 237 0 236 -98 0 c-174 0 -259 26 -340 104 -43 41 -209 302 -199
313 4 3 42 20 85 37 203 82 347 243 387 434 48 223 -14 456 -162 612 -73 78
-143 122 -260 164 l-88 31 -778 3 -777 3 2 -1083z m1482 638 c108 -26 149 -74
154 -179 4 -85 -13 -124 -70 -170 -60 -48 -122 -57 -413 -57 -175 0 -291 -5
-355 -15 -108 -16 -253 -56 -310 -85 -22 -11 -42 -20 -45 -20 -3 0 -5 122 -5
270 l0 270 493 0 c383 0 505 -3 551 -14z"/>
<path d="M1500 4755 l0 -1715 250 0 250 0 2 663 3 662 82 33 c210 84 291 93
873 102 541 8 547 8 716 72 314 118 523 386 574 737 19 130 8 363 -23 483 -98
375 -397 621 -812 668 -54 6 -454 10 -1002 10 l-913 0 0 -1715z m1945 1195
c210 -54 302 -173 320 -415 17 -218 -69 -402 -221 -475 -105 -51 -117 -52
-664 -60 -430 -6 -526 -10 -580 -24 -98 -25 -190 -56 -242 -82 -26 -13 -50
-24 -53 -24 -3 0 -5 248 -5 551 l0 550 698 -4 c526 -3 709 -7 747 -17z"/>
<path d="M5645 5486 c-378 -63 -648 -247 -748 -512 -19 -51 -22 -78 -22 -204
0 -125 3 -155 23 -215 69 -207 222 -343 472 -419 128 -38 265 -54 580 -66 157
-5 321 -17 364 -24 97 -18 197 -66 231 -110 46 -60 50 -178 10 -256 -28 -53
-103 -118 -180 -155 -136 -66 -296 -95 -518 -95 -173 0 -273 21 -391 83 -103
53 -170 106 -273 215 l-82 87 -172 -171 -171 -171 53 -57 c148 -162 364 -298
598 -376 138 -46 218 -60 396 -67 309 -11 580 40 798 151 227 116 364 278 418
495 18 73 21 105 17 230 -4 125 -9 157 -32 226 -73 214 -220 327 -524 404
-138 35 -292 52 -557 61 -352 13 -447 31 -522 103 -42 39 -62 118 -44 176 35
117 267 221 493 221 240 0 477 -62 632 -165 31 -20 60 -34 65 -31 5 4 78 85
161 181 l151 175 -72 46 c-162 105 -381 189 -588 225 -148 26 -449 34 -566 15z"/>
<path d="M11649 5489 c-260 -27 -544 -137 -742 -285 -343 -258 -519 -674 -468
-1111 58 -500 384 -880 899 -1049 301 -99 670 -100 982 -4 149 46 356 154 464
242 l28 24 -137 197 c-86 124 -141 195 -148 190 -7 -4 -30 -21 -52 -38 -162
-129 -352 -194 -584 -202 -340 -13 -597 81 -780 284 -108 120 -165 262 -177
443 -24 338 150 620 464 754 143 61 246 81 432 81 235 0 398 -39 572 -139 l76
-43 153 179 c85 98 155 182 157 186 3 11 -109 83 -203 130 -272 136 -616 195
-936 161z"/>
<path d="M17995 5494 c-81 -9 -260 -46 -339 -70 -44 -14 -135 -52 -201 -84
-358 -173 -593 -459 -676 -820 -28 -122 -35 -346 -15 -478 30 -197 117 -404
231 -552 58 -75 186 -196 268 -254 152 -108 388 -206 584 -242 50 -9 166 -18
268 -21 153 -4 199 -2 304 16 316 54 581 187 786 395 255 258 365 547 351 921
-10 277 -76 470 -231 676 -192 257 -491 427 -865 494 -92 16 -379 28 -465 19z
m444 -513 c373 -93 586 -318 621 -653 40 -391 -199 -721 -606 -838 -217 -63
-504 -49 -713 35 -193 76 -361 229 -435 396 -75 172 -77 439 -4 612 102 243
323 402 643 462 116 21 381 14 494 -14z"/>
<path d="M23870 5490 c-550 -68 -975 -374 -1145 -826 -71 -188 -90 -473 -46
-682 81 -384 306 -670 671 -852 225 -113 438 -161 710 -160 312 0 589 79 832
235 400 258 610 686 568 1159 -27 307 -136 541 -347 747 -199 194 -430 305
-758 365 -98 18 -383 26 -485 14z m396 -495 c234 -41 394 -121 524 -262 173
-189 226 -483 135 -746 -32 -94 -78 -166 -158 -253 -114 -122 -253 -203 -437
-252 -85 -23 -114 -25 -270 -25 -164 0 -182 2 -293 31 -65 17 -151 47 -190 67
-205 101 -349 271 -404 475 -25 91 -24 319 1 410 81 294 321 490 678 555 102
18 307 18 414 0z"/>
<path d="M27325 5488 c-348 -39 -687 -200 -895 -426 -197 -213 -301 -461 -317
-757 -19 -363 115 -710 369 -951 191 -181 470 -316 756 -365 129 -21 344 -26
482 -9 266 33 526 135 718 282 l52 40 0 549 0 549 -455 0 c-250 0 -455 -3
-455 -7 1 -5 45 -105 99 -223 l98 -215 122 -3 121 -3 0 -193 0 -194 -47 -20
c-76 -32 -162 -59 -245 -76 -98 -20 -305 -21 -418 -1 -354 62 -603 273 -677
573 -25 101 -22 304 5 405 75 276 288 467 612 548 83 21 118 24 270 23 145 0
190 -4 262 -22 114 -28 227 -72 309 -120 l66 -39 154 178 c85 99 155 182 157
187 3 9 -141 99 -223 140 -264 130 -606 186 -920 150z"/>
<path d="M7500 5415 c0 -2 223 -321 495 -707 l495 -702 0 -483 0 -483 235 0
235 0 0 478 0 477 490 709 c270 389 490 710 490 712 0 2 -127 4 -282 4 l-283
0 -321 -463 c-177 -254 -325 -462 -330 -461 -5 0 -149 207 -319 460 l-310 459
-298 3 c-163 1 -297 0 -297 -3z"/>
<path d="M13640 4230 l0 -1190 235 0 235 0 0 474 0 474 48 16 c137 44 335 46
602 6 74 -11 207 -23 295 -26 143 -5 168 -3 235 16 41 11 85 23 98 27 l22 5 0
-496 0 -496 230 0 230 0 0 1190 0 1190 -230 0 -230 0 0 -449 0 -449 -42 -17
c-64 -25 -180 -45 -267 -45 -43 0 -188 14 -322 32 -325 41 -492 44 -596 7
l-73 -25 0 473 0 473 -235 0 -235 0 0 -1190z"/>
<path d="M20440 4230 l0 -1190 875 0 875 0 0 240 0 240 -630 0 -630 0 0 950 0
950 -245 0 -245 0 0 -1190z"/>
<path d="M29063 5398 c8 -13 233 -333 501 -713 l486 -689 0 -478 0 -478 235 0
235 0 0 483 0 483 485 701 c267 386 485 704 485 707 0 3 -127 6 -282 5 l-283
0 -320 -464 c-176 -255 -323 -464 -327 -464 -4 -1 -148 208 -320 464 l-313
465 -299 0 -298 0 15 -22z"/>
</g>
</svg>
